<svg xmlns="http://www.w3.org/2000/svg" width="71" height="16" viewBox="0 0 71 16" fill="none">
    <line x1="1.25" y1="8.25" x2="51.75" y2="8.25" stroke="url(#paint0_linear_3942_64359)" stroke-width="1.5" stroke-linecap="round" stroke-dasharray="4 4"/>
    <path d="M66.0487 10.2583L63.0903 14.7179L66.1517 10.1029M66.0487 10.2583C67.0943 9.91283 68.0761 9.38738 68.9477 8.70208C69.2002 8.50355 69.4435 8.2916 69.6764 8.06673C69.6563 8.04693 69.6361 8.02722 69.6157 8.0076C69.3827 7.78239 69.1377 7.56876 68.8818 7.3677C68.6821 7.2108 68.4757 7.06155 68.2629 6.92042C67.5879 6.47266 66.8624 6.1153 66.1049 5.85389L67.8263 7.57859L68.2488 8.00189L68.2431 8.0076L66.1517 10.1029M66.0487 10.2583C66.023 10.2668 65.9974 10.2751 65.9716 10.2834L66.1517 10.1029M66.0487 10.2583L66.1517 10.1029M63.0044 14.8583L63.0003 14.8575L63.0044 14.8583ZM67.5417 8.0076L66.1673 10.0795L67.5417 8.0076Z" fill="url(#paint1_linear_3942_64359)" stroke="url(#paint2_linear_3942_64359)" stroke-width="21.3333"/>
    <path d="M59.2721 10.1399C59.2658 10.142 59.2596 10.1442 59.2534 10.1463C59.2493 10.1477 59.2452 10.1492 59.241 10.1506L59.3118 10.0799M59.2721 10.1399L56.244 14.7045L59.2721 10.1399ZM59.2721 10.1399C60.2626 9.79587 61.194 9.28905 62.026 8.63614C62.2783 8.43814 62.5214 8.2267 62.7543 8.00229C62.7524 8.0004 62.7504 7.99851 62.7484 7.99661C62.5189 7.7756 62.2779 7.5658 62.0263 7.36814C61.8266 7.21124 61.6202 7.06199 61.4075 6.92086L60.9708 7.57903M60.9708 7.57903L61.4074 6.92086C60.7325 6.4731 60.0069 6.11574 59.2494 5.85433L60.9708 7.57903ZM60.9708 7.57903L61.3876 7.99661L61.3933 8.00233L59.3118 10.0799M59.3118 10.0799L59.2963 10.1034L59.3118 10.0799ZM56.1497 14.8466L56.244 14.7046L56.1497 14.8466ZM56.1489 14.8588L56.1449 14.858L56.1489 14.8588ZM56.1326 14.8295L55.9597 14.4203L56.1326 14.8295Z" fill="url(#paint3_linear_3942_64359)" stroke="url(#paint4_linear_3942_64359)" stroke-width="21.3333"/>
    <defs>
        <linearGradient id="paint0_linear_3942_64359" x1="-2.38498" y1="8.83018" x2="-2.31884" y2="12.594" gradientUnits="userSpaceOnUse">
            <stop offset="0.119467" stop-color="#4B65F1"/>
            <stop offset="1" stop-color="#FA03FF" stop-opacity="0.2"/>
        </linearGradient>
        <linearGradient id="paint1_linear_3942_64359" x1="61.3486" y1="-2.63257" x2="88.3523" y2="14.3201" gradientUnits="userSpaceOnUse">
            <stop offset="0.119467" stop-color="#4B65F1"/>
            <stop offset="1" stop-color="#FA03FF" stop-opacity="0.2"/>
        </linearGradient>
        <linearGradient id="paint2_linear_3942_64359" x1="61.3486" y1="-2.63257" x2="88.3523" y2="14.3201" gradientUnits="userSpaceOnUse">
            <stop offset="0.119467" stop-color="#4B65F1"/>
            <stop offset="1" stop-color="#FA03FF" stop-opacity="0.2"/>
        </linearGradient>
        <linearGradient id="paint3_linear_3942_64359" x1="54.4925" y1="-2.71719" x2="81.5804" y2="14.2323" gradientUnits="userSpaceOnUse">
            <stop offset="0.119467" stop-color="#4B65F1"/>
            <stop offset="1" stop-color="#FA03FF" stop-opacity="0.2"/>
        </linearGradient>
        <linearGradient id="paint4_linear_3942_64359" x1="54.4925" y1="-2.71719" x2="81.5804" y2="14.2323" gradientUnits="userSpaceOnUse">
            <stop offset="0.119467" stop-color="#4B65F1"/>
            <stop offset="1" stop-color="#FA03FF" stop-opacity="0.2"/>
        </linearGradient>
    </defs>
</svg>