<svg width="85" height="84" viewBox="0 0 85 84" fill="none"
    xmlns="http://www.w3.org/2000/svg">
    <g filter="url(#filter0_b_3942_55069)">
        <rect x="0.492188" width="84" height="84" rx="16" fill="url(#paint0_linear_3942_55069)" fill-opacity="0.25"/>
        <rect x="0.992188" y="0.5" width="83" height="83" rx="15.5" stroke="url(#paint1_linear_3942_55069)" stroke-opacity="0.2"/>
    </g>
    <path d="M40.2428 42.0002H31.9928M31.8658 42.4374L28.3635 52.8995C28.0883 53.7214 27.9507 54.1323 28.0495 54.3854C28.1352 54.6052 28.3194 54.7718 28.5466 54.8352C28.8082 54.9082 29.2034 54.7304 29.9938 54.3747L55.061 43.0945C55.8325 42.7473 56.2183 42.5737 56.3375 42.3326C56.4411 42.1231 56.4411 41.8773 56.3375 41.6678C56.2183 41.4266 55.8325 41.253 55.061 40.9059L29.9851 29.6218C29.1971 29.2672 28.8031 29.0899 28.5417 29.1626C28.3147 29.2257 28.1305 29.3919 28.0445 29.6113C27.9454 29.8639 28.0815 30.2739 28.3537 31.0941L31.8668 41.6785C31.9136 41.8193 31.9369 41.8898 31.9462 41.9618C31.9544 42.0257 31.9543 42.0904 31.9459 42.1543C31.9365 42.2263 31.913 42.2967 31.8658 42.4374Z" stroke="white" stroke-width="2" stroke-linecap="round" stroke-linejoin="round"/>
    <defs>
        <filter id="filter0_b_3942_55069" x="-19.5078" y="-20" width="124" height="124" filterUnits="userSpaceOnUse" color-interpolation-filters="sRGB">
            <feFlood flood-opacity="0" result="BackgroundImageFix"/>
            <feGaussianBlur in="BackgroundImageFix" stdDeviation="10"/>
            <feComposite in2="SourceAlpha" operator="in" result="effect1_backgroundBlur_3942_55069"/>
            <feBlend mode="normal" in="SourceGraphic" in2="effect1_backgroundBlur_3942_55069" result="shape"/>
        </filter>
        <linearGradient id="paint0_linear_3942_55069" x1="0.492196" y1="-2.61683" x2="100.583" y2="203.479" gradientUnits="userSpaceOnUse">
            <stop stop-color="white" stop-opacity="0"/>
            <stop offset="1" stop-color="white"/>
        </linearGradient>
        <linearGradient id="paint1_linear_3942_55069" x1="-2.48785" y1="-7.19626" x2="58.9716" y2="106.715" gradientUnits="userSpaceOnUse">
            <stop stop-color="white"/>
            <stop offset="1" stop-color="white" stop-opacity="0"/>
        </linearGradient>
    </defs>
</svg>
