<svg xmlns="http://www.w3.org/2000/svg" width="71" height="16" viewBox="0 0 71 16" fill="none">
    <line x1="1.25" y1="8.25" x2="51.75" y2="8.25" stroke="white" stroke-opacity="0.5" stroke-width="1.5" stroke-linecap="round" stroke-dasharray="4 4"/>
    <path d="M63.0046 15.9995C62.7777 16.0009 62.5555 15.9346 62.3664 15.8091C62.1773 15.6837 62.0298 15.5047 61.9428 15.2952C61.8558 15.0856 61.8332 14.8548 61.8778 14.6323C61.9224 14.4098 62.0323 14.2056 62.1934 14.0458L68.2488 8.00189L62.1934 1.95795C62.0063 1.73938 61.9085 1.45824 61.9196 1.17069C61.9307 0.883145 62.0499 0.61038 62.2534 0.406903C62.4568 0.203426 62.7296 0.0842243 63.0171 0.0731177C63.3047 0.0620111 63.5858 0.159818 63.8044 0.346993L70.6595 7.20212C70.8723 7.41619 70.9918 7.70576 70.9918 8.0076C70.9918 8.30944 70.8723 8.59901 70.6595 8.81308L63.8044 15.6682C63.5916 15.8793 63.3044 15.9983 63.0046 15.9995Z" fill="white" fill-opacity="0.5"/>
    <path d="M66.0487 10.2583L63.0903 14.7179L66.1517 10.1029M66.0487 10.2583C67.0943 9.91283 68.0761 9.38738 68.9477 8.70208C69.2002 8.50355 69.4435 8.2916 69.6764 8.06673C69.6563 8.04693 69.6361 8.02722 69.6157 8.0076C69.3827 7.78239 69.1377 7.56876 68.8818 7.3677C68.6821 7.2108 68.4757 7.06155 68.2629 6.92042C67.5879 6.47266 66.8624 6.1153 66.1049 5.85389L67.8263 7.57859L68.2488 8.00189L68.2431 8.0076L66.1517 10.1029M66.0487 10.2583C66.023 10.2668 65.9974 10.2751 65.9716 10.2834L66.1517 10.1029M66.0487 10.2583L66.1517 10.1029M63.0044 14.8583L63.0003 14.8575L63.0044 14.8583ZM67.5417 8.0076L66.1673 10.0795L67.5417 8.0076Z" stroke="white" stroke-opacity="0.5" stroke-width="21.3333"/>
    <path d="M56.1492 16C55.9222 16.0013 55.7 15.935 55.5109 15.8096C55.3218 15.6841 55.1744 15.5052 55.0873 15.2956C55.0003 15.086 54.9777 14.8553 55.0223 14.6327C55.067 14.4102 55.1768 14.2061 55.338 14.0463L61.3933 8.00233L55.338 1.95839C55.1228 1.74325 55.002 1.45145 55.002 1.1472C55.002 0.842941 55.1228 0.551147 55.338 0.336006C55.5531 0.120865 55.8449 2.26688e-09 56.1492 0C56.4534 -2.26688e-09 56.7452 0.120865 56.9604 0.336006L63.8155 7.19114C64.0283 7.4052 64.1477 7.69478 64.1477 7.99661C64.1477 8.29845 64.0283 8.58803 63.8155 8.80209L56.9604 15.6572C56.8545 15.7652 56.7284 15.8511 56.5891 15.9099C56.4499 15.9687 56.3003 15.9994 56.1492 16Z" fill="white" fill-opacity="0.5"/>
    <path d="M59.2721 10.1399C59.2658 10.142 59.2596 10.1442 59.2534 10.1463C59.2493 10.1477 59.2452 10.1492 59.241 10.1506L59.3118 10.0799M59.2721 10.1399L56.244 14.7045L59.2721 10.1399ZM59.2721 10.1399C60.2626 9.79587 61.194 9.28905 62.026 8.63614C62.2783 8.43814 62.5214 8.2267 62.7543 8.00229C62.7524 8.0004 62.7504 7.99851 62.7484 7.99661C62.5189 7.7756 62.2779 7.5658 62.0263 7.36814C61.8266 7.21124 61.6202 7.06199 61.4075 6.92086L60.9708 7.57903M60.9708 7.57903L61.4074 6.92086C60.7325 6.4731 60.0069 6.11574 59.2494 5.85433L60.9708 7.57903ZM60.9708 7.57903L61.3876 7.99661L61.3933 8.00233L59.3118 10.0799M59.3118 10.0799L59.2963 10.1034L59.3118 10.0799ZM56.1497 14.8466L56.244 14.7046L56.1497 14.8466ZM56.1489 14.8588L56.1449 14.858L56.1489 14.8588ZM56.1326 14.8295L55.9597 14.4203L56.1326 14.8295Z" stroke="white" stroke-opacity="0.5" stroke-width="21.3333"/>
</svg>